<?xml version="1.0" standalone="no"?>
<!DOCTYPE svg PUBLIC "-//W3C//DTD SVG 20010904//EN"
 "http://www.w3.org/TR/2001/REC-SVG-20010904/DTD/svg10.dtd">
<svg version="1.0" xmlns="http://www.w3.org/2000/svg"
 width="3272.000000pt" height="1984.000000pt" viewBox="0 0 3272.000000 1984.000000"
 preserveAspectRatio="xMidYMid meet">

<g transform="translate(0.000000,1984.000000) scale(0.100000,-0.100000)"
fill="#000000" stroke="none">
<path d="M16060 18269 c-8 -14 -11 -380 -10 -1277 1 -1144 2 -1258 17 -1274
13 -14 32 -18 92 -19 92 0 263 -32 326 -60 11 -4 49 -18 85 -29 36 -12 77 -30
92 -41 28 -20 73 -26 82 -10 3 5 -10 25 -28 46 -30 33 -35 47 -45 123 -7 48
-19 117 -28 154 -24 104 -2 167 69 204 58 30 176 17 280 -29 18 -9 50 -21 70
-27 21 -6 41 -18 45 -25 5 -7 20 -16 35 -20 21 -6 27 -3 33 16 6 18 1 28 -21
46 -16 13 -34 23 -40 23 -6 0 -19 8 -28 19 -9 10 -31 22 -49 25 -17 4 -44 20
-59 36 -21 24 -35 30 -67 30 -31 0 -44 6 -61 27 -17 22 -31 27 -78 31 -43 4
-66 12 -93 33 -28 22 -48 29 -81 29 -59 0 -88 27 -112 102 -16 52 -16 63 -4
114 17 66 8 167 -23 260 -11 33 -24 100 -29 148 -6 48 -19 114 -30 146 -11 32
-24 96 -29 143 -5 46 -19 111 -30 143 -11 33 -24 97 -30 142 -6 49 -20 101
-35 130 -14 27 -28 73 -32 103 -3 30 -17 79 -30 109 -12 30 -30 89 -39 130 -9
41 -23 101 -31 133 -13 52 -13 61 2 89 l16 31 -38 33 c-46 39 -50 40 -64 13z"/>
<path d="M17546 16463 c-11 -11 -6 -23 9 -23 8 0 15 4 15 9 0 13 -16 22 -24
14z"/>
<path d="M14690 16424 c0 -9 11 -29 25 -46 14 -16 25 -35 25 -41 0 -24 97
-152 118 -155 29 -4 62 15 62 36 0 17 -140 162 -157 162 -4 0 -16 14 -25 30
-18 32 -48 41 -48 14z"/>
<path d="M17469 16335 c-7 -20 -23 -42 -36 -50 -13 -9 -29 -31 -37 -49 -8 -19
-24 -39 -35 -46 -41 -21 -12 -92 31 -75 22 10 78 108 78 139 0 21 9 37 32 56
28 24 31 30 19 44 -21 25 -39 19 -52 -19z"/>
<path d="M15610 16313 c-41 -6 -114 -26 -125 -33 -5 -4 -28 -13 -50 -19 -62
-19 -218 -83 -235 -97 -8 -6 -32 -19 -53 -28 -22 -9 -52 -27 -69 -41 -16 -14
-34 -25 -38 -25 -10 0 -156 -98 -208 -139 -49 -38 -284 -273 -307 -305 -65
-92 -115 -162 -122 -171 -13 -15 -93 -156 -93 -163 0 -3 -6 -13 -14 -21 -8 -9
-21 -38 -31 -66 -9 -27 -20 -54 -24 -60 -33 -42 -109 -299 -98 -329 10 -24 54
-19 79 9 18 20 31 25 70 25 53 0 88 13 88 33 0 22 97 214 139 276 50 74 108
111 173 111 33 0 50 -6 64 -21 10 -11 33 -27 51 -34 18 -8 33 -19 33 -24 0 -6
14 -18 31 -26 17 -9 35 -29 41 -46 5 -16 16 -29 24 -29 15 0 14 -1 80 85 26
33 67 81 92 107 48 50 51 78 8 78 -14 0 -48 14 -76 30 -28 17 -55 30 -61 30
-18 0 -89 40 -89 50 0 5 -11 12 -24 16 -14 3 -33 15 -43 26 -17 19 -16 22 73
108 140 136 184 150 247 77 44 -51 123 -170 134 -202 12 -37 29 -35 98 7 28
17 62 37 77 45 26 14 78 68 78 81 0 4 -34 43 -75 86 -78 82 -135 158 -135 180
0 23 44 54 141 101 53 25 101 45 107 45 22 0 42 45 42 93 0 40 -3 48 -17 46
-33 -3 -43 1 -43 16 0 9 17 19 46 26 52 13 84 50 68 77 -12 18 -20 21 -54 15z
m-95 -153 c6 -1 -12 -10 -40 -20 -54 -22 -95 -26 -95 -10 0 18 55 40 90 35 19
-2 40 -5 45 -5z m-151 -59 c5 -8 -81 -51 -103 -51 -6 0 -11 -4 -11 -9 0 -11
-56 -32 -64 -24 -17 17 -3 33 27 33 26 0 36 6 45 24 6 14 21 26 34 29 41 8 67
7 72 -2z m-450 -279 c-101 -95 -135 -122 -145 -117 -13 9 9 46 32 52 10 3 19
10 19 16 0 18 32 47 52 47 10 0 18 6 18 13 0 21 22 37 50 37 23 0 22 -3 -26
-48z m-175 -158 c-12 -13 -26 -21 -30 -18 -11 6 6 41 23 47 26 9 29 -6 7 -29z
m-39 -32 c0 -5 -9 -17 -20 -27 -19 -18 -20 -17 -20 2 0 11 3 23 7 26 9 10 33
9 33 -1z"/>
<path d="M17180 15978 c0 -46 -136 -269 -250 -412 -91 -113 -87 -102 -49 -133
19 -15 91 -85 160 -154 86 -87 135 -145 153 -181 15 -29 44 -82 66 -118 22
-36 40 -77 40 -92 0 -40 27 -36 44 6 8 19 22 37 33 40 10 3 28 21 41 40 13 19
101 114 197 212 111 114 174 187 175 200 0 12 -14 40 -30 63 -26 35 -33 40
-50 31 -10 -6 -25 -19 -32 -29 -16 -23 -343 -244 -403 -272 -48 -23 -61 -20
-76 18 -7 18 -4 43 11 93 22 73 25 110 10 110 -5 0 -25 -13 -43 -30 -19 -16
-40 -30 -46 -30 -27 0 -2 146 29 165 5 3 10 15 10 26 0 11 11 44 24 72 13 29
29 68 36 87 7 19 26 54 41 77 15 22 30 51 34 62 8 27 45 28 52 1 3 -11 9 -20
13 -20 4 0 13 -13 20 -30 7 -16 18 -35 26 -41 19 -15 94 -29 94 -17 0 18 -64
89 -116 129 -29 23 -56 50 -59 60 -10 32 -83 79 -122 79 -18 0 -33 -5 -33 -12z"/>
<path d="M14124 15766 c-9 -24 2 -45 30 -56 13 -5 45 -25 71 -44 53 -41 89
-46 105 -16 18 33 3 58 -39 70 -21 5 -50 19 -65 31 -36 28 -94 37 -102 15z"/>
<path d="M18049 15695 c-13 -8 -35 -20 -49 -27 -42 -21 -110 -80 -110 -95 0
-16 44 -63 59 -63 5 0 16 11 23 24 22 39 77 108 98 123 39 27 20 61 -21 38z"/>
<path d="M16772 15518 c3 -7 13 -15 22 -16 12 -3 17 1 14 10 -3 7 -13 15 -22
16 -12 3 -17 -1 -14 -10z"/>
<path d="M15915 15501 c-16 -5 -61 -14 -100 -21 -38 -7 -94 -23 -124 -36 -29
-13 -61 -24 -71 -24 -9 0 -37 -13 -61 -30 -24 -16 -48 -30 -52 -30 -10 0 -81
-53 -173 -128 -146 -121 -281 -322 -337 -502 -72 -234 -86 -404 -42 -534 15
-44 25 -97 25 -129 0 -43 5 -62 23 -84 13 -15 27 -43 31 -62 3 -19 22 -59 42
-90 20 -31 48 -74 63 -96 103 -160 250 -285 457 -390 80 -41 101 -46 214 -61
69 -8 143 -20 165 -25 22 -5 58 -14 79 -20 42 -10 136 0 256 27 36 9 85 20
110 25 25 6 66 21 91 35 26 13 52 24 59 24 8 0 36 15 64 33 27 17 58 37 67 42
92 56 205 162 283 266 56 74 60 108 17 138 -45 33 -62 123 -59 315 l3 154 -32
45 c-18 25 -33 56 -33 69 0 43 44 102 106 144 90 61 101 63 120 19 12 -29 15
-79 13 -253 -1 -204 3 -252 21 -252 21 0 67 91 55 110 -3 4 2 27 10 50 23 65
20 237 -6 330 -12 41 -25 95 -29 120 -5 25 -25 85 -45 134 -112 274 -359 516
-635 621 -25 10 -54 21 -65 26 -75 33 -433 61 -510 40z m157 -308 c-10 -53
-18 -157 -28 -353 -2 -41 -7 -120 -11 -174 -6 -65 -5 -102 2 -108 5 -4 22 -17
38 -29 35 -27 34 -44 -7 -104 -65 -93 -64 -92 -72 -261 -6 -155 -6 -161 21
-239 34 -103 45 -115 92 -105 37 9 53 24 53 51 0 9 14 33 30 54 23 29 30 48
30 82 0 27 10 66 27 101 21 44 28 78 33 149 4 72 10 98 27 121 17 23 23 49 28
128 7 108 19 150 45 164 12 6 17 22 17 48 0 49 18 82 45 82 19 0 20 -4 14 -46
-6 -50 -20 -74 -41 -74 -9 0 -14 -26 -17 -92 -2 -77 -8 -102 -29 -143 -23 -43
-27 -66 -31 -165 -4 -92 -9 -122 -25 -150 -11 -19 -23 -61 -27 -92 -3 -32 -15
-72 -26 -90 -24 -41 -27 -46 -34 -81 -9 -37 -68 -101 -123 -132 -99 -55 -196
-16 -255 102 -32 66 -33 70 -36 219 -3 148 -3 153 23 203 24 44 25 54 16 84
-11 31 -16 35 -58 41 -60 8 -267 8 -328 -1 -41 -5 -49 -10 -61 -38 -7 -18 -11
-47 -8 -67 8 -46 -12 -115 -35 -123 -14 -4 -20 -18 -23 -55 -4 -41 -13 -59
-52 -104 -40 -47 -53 -56 -91 -62 -37 -5 -52 -2 -90 21 -48 28 -65 56 -65 106
0 17 -5 40 -12 52 -7 12 -16 49 -20 82 -3 33 -10 83 -13 110 -8 63 9 94 43 76
22 -12 43 -50 62 -116 6 -22 23 -64 36 -93 13 -29 24 -56 24 -60 0 -20 53 -62
79 -62 24 0 31 6 45 44 10 26 25 46 36 49 18 5 20 14 20 104 0 115 -14 149
-57 138 -16 -4 -35 0 -50 11 -22 14 -25 21 -20 56 7 50 32 78 69 78 31 0 84
23 90 40 1 5 1 123 -2 262 -5 224 -4 258 11 295 12 30 25 44 43 49 44 11 59
-1 53 -44 -3 -20 -11 -127 -18 -237 -8 -138 -17 -217 -29 -255 -32 -97 -6
-110 225 -110 143 0 166 2 186 18 22 19 22 22 27 308 4 275 5 290 25 312 11
12 25 22 31 22 5 0 20 10 34 22 30 29 104 59 116 48 5 -5 4 -33 -2 -67z m592
-219 c9 -3 25 -22 37 -41 21 -34 22 -44 21 -326 -1 -167 -6 -307 -12 -327 -15
-52 -13 -143 5 -166 18 -24 30 -10 39 46 4 26 13 40 31 48 20 10 25 19 25 51
0 42 29 89 48 77 22 -13 14 -85 -12 -111 -14 -14 -26 -41 -30 -68 -4 -27 -16
-53 -30 -66 -13 -13 -27 -38 -31 -58 -15 -80 -100 -203 -140 -203 -28 0 -32 5
-65 90 l-25 65 0 400 0 400 -32 15 c-19 9 -33 23 -33 33 0 29 87 114 133 131
51 17 51 18 71 10z m-1644 -544 c0 -5 -4 -10 -10 -10 -5 0 -10 5 -10 10 0 6 5
10 10 10 6 0 10 -4 10 -10z"/>
<path d="M17960 15471 c0 -5 5 -13 10 -16 6 -3 10 -2 10 4 0 5 -4 13 -10 16
-5 3 -10 2 -10 -4z"/>
<path d="M18010 15382 c0 -28 7 -45 25 -62 14 -13 25 -35 25 -49 0 -15 12 -44
27 -66 16 -24 30 -61 34 -94 4 -30 16 -62 27 -75 13 -14 21 -42 25 -86 13
-140 75 -249 121 -211 16 13 14 23 -15 86 -9 22 -21 63 -24 90 -4 28 -20 70
-34 95 -15 25 -30 61 -33 81 -4 19 -18 53 -32 74 -15 21 -29 50 -32 64 -7 32
-36 91 -45 91 -4 0 -10 15 -13 33 -5 28 -35 67 -51 67 -3 0 -5 -17 -5 -38z"/>
<path d="M14887 15016 c-4 -10 -5 -21 -2 -24 9 -9 17 6 13 25 -3 17 -4 17 -11
-1z"/>
<path d="M17521 14946 c-39 -17 -49 -25 -36 -30 34 -13 85 -6 105 14 45 45 14
52 -69 16z"/>
<path d="M17356 14803 c-3 -3 -6 -28 -6 -54 0 -36 6 -55 24 -76 13 -15 27 -26
29 -23 3 3 3 36 0 73 -4 50 -10 70 -23 77 -10 5 -20 6 -24 3z"/>
<path d="M17396 14599 c-3 -17 -4 -35 -1 -39 3 -4 5 -90 6 -191 1 -184 1 -184
-36 -319 -21 -74 -41 -142 -45 -150 -4 -8 -29 -59 -55 -113 -55 -116 -71 -141
-170 -262 -86 -104 -309 -295 -345 -295 -5 0 -28 -13 -52 -28 -24 -16 -63 -36
-88 -46 -25 -10 -54 -22 -65 -27 -112 -46 -330 -85 -455 -82 -142 4 -315 16
-320 22 -17 24 -60 41 -102 41 -52 0 -66 -11 -42 -34 11 -11 34 -16 79 -16 53
0 66 -3 74 -19 15 -26 63 -43 151 -50 66 -5 76 -9 87 -31 10 -19 13 -145 13
-537 0 -282 -1 -513 -3 -513 -2 0 -79 -7 -172 -14 -94 -8 -244 -18 -335 -21
-219 -8 -208 -5 -216 -65 -4 -28 -8 -50 -9 -50 -1 0 -37 21 -79 46 -132 79
-317 145 -503 179 -121 22 -421 31 -553 16 -423 -49 -734 -200 -978 -477 l-65
-74 -40 67 c-49 81 -161 200 -243 259 -131 94 -333 170 -524 199 -146 23 -372
17 -499 -11 -27 -6 -27 -22 6 281 9 83 13 168 9 189 -4 21 -22 53 -42 75 -36
41 -41 66 -25 149 l8 43 -173 124 c-96 69 -176 125 -179 125 -2 0 -83 -34
-180 -75 -96 -41 -235 -95 -308 -119 -125 -42 -434 -128 -559 -156 l-58 -13 0
-295 0 -294 83 7 c45 3 89 8 98 11 12 3 18 -4 21 -26 l5 -30 -56 0 c-78 0
-172 -16 -272 -46 l-86 -26 -128 76 c-71 42 -132 76 -135 76 -4 0 -77 -34
-163 -75 -199 -97 -396 -161 -674 -221 l-222 -48 -3 -54 -3 -55 -33 51 c-46
72 -169 183 -249 225 -95 49 -228 92 -352 113 -82 13 -142 15 -290 11 -200 -5
-336 -25 -541 -77 -140 -35 -491 -155 -500 -171 -4 -6 -10 -52 -14 -102 -10
-134 -31 -254 -81 -469 -25 -105 -43 -194 -40 -198 2 -4 44 -10 92 -14 48 -4
103 -10 121 -14 l34 -7 -66 -53 c-168 -135 -271 -324 -278 -514 -3 -67 -9 -77
-38 -58 -13 8 -15 105 -15 772 0 707 1 766 18 809 33 86 90 117 272 149 212
38 225 53 225 268 0 157 -11 204 -53 223 -29 13 -37 54 -37 196 l0 95 -97 -6
c-481 -30 -1093 -34 -1671 -12 -329 13 -407 13 -655 0 -447 -23 -1225 -18
-1675 12 l-92 6 2 -298 3 -298 94 -16 c52 -9 96 -21 98 -26 24 -72 76 -118
146 -129 23 -3 70 -11 104 -17 l61 -10 7 -71 c3 -40 5 -423 3 -851 l-3 -780
-258 -45 -257 -45 0 -293 0 -293 98 0 97 0 15 -47 c18 -57 52 -83 110 -86 25
-1 198 5 385 12 355 15 705 12 1278 -10 226 -9 360 -9 537 0 459 22 676 24
1183 11 l512 -13 76 22 c97 27 142 26 264 -5 75 -19 136 -27 244 -31 174 -7
274 6 426 55 153 49 226 49 350 0 125 -50 217 -63 373 -53 70 5 208 9 307 10
99 1 320 7 490 15 320 13 627 10 901 -10 231 -18 248 -5 260 194 4 64 11 116
15 116 25 0 189 -74 189 -85 0 -24 52 -75 99 -99 60 -30 242 -90 352 -116 291
-68 629 -66 905 6 277 72 534 216 731 411 162 159 160 159 281 41 54 -52 113
-105 132 -118 19 -13 59 -45 87 -71 155 -140 369 -239 619 -290 136 -27 434
-37 580 -20 449 53 793 247 1008 569 37 57 70 102 72 100 1 -2 23 -44 48 -93
52 -105 129 -195 225 -263 36 -25 67 -50 69 -54 6 -13 126 -104 172 -130 65
-36 143 -65 245 -90 78 -19 117 -22 295 -23 194 0 211 2 315 29 139 35 209 33
308 -13 102 -47 139 -49 228 -12 298 123 293 121 355 121 49 0 68 -5 95 -25
132 -96 127 -94 349 -82 266 15 933 14 1122 -1 158 -13 170 -13 205 5 55 27
65 68 61 233 -4 146 -16 185 -63 216 -24 16 -25 20 -25 133 l0 117 -117 23
c-65 12 -140 27 -167 33 l-48 10 5 202 c6 264 26 330 111 370 29 13 75 16 295
16 l260 0 78 41 c73 39 78 40 91 22 18 -23 336 -665 515 -1038 l134 -280 60
-3 c56 -3 62 -5 73 -31 15 -36 67 -87 103 -100 16 -6 104 -11 203 -11 194 0
231 9 273 68 11 16 114 224 229 463 418 868 444 914 534 960 22 11 61 23 88
26 l48 6 7 -57 c9 -67 2 -632 -7 -641 -3 -4 -89 -23 -190 -44 l-183 -37 -3
-288 -2 -287 104 3 104 3 5 -40 c4 -28 15 -48 38 -69 l32 -29 291 9 c393 12
785 10 994 -5 207 -14 223 -10 285 79 69 100 115 103 289 17 217 -107 331
-132 598 -131 345 1 456 37 873 285 298 177 347 213 347 255 0 27 -23 78 -49
107 -15 18 -14 20 12 41 l28 23 -118 149 c-151 190 -213 271 -213 278 0 20
212 139 266 149 l31 6 85 -177 c47 -97 170 -358 273 -579 l188 -403 58 0 c57
0 57 0 83 -44 50 -85 65 -91 276 -94 209 -4 244 2 288 52 16 19 84 140 152
270 85 163 133 245 156 266 19 16 38 30 43 30 7 0 52 -91 181 -367 l53 -113
58 0 c58 0 59 0 79 -39 11 -22 36 -52 57 -68 l36 -28 193 -3 c178 -3 195 -2
232 17 27 14 51 37 67 66 15 24 136 288 271 585 325 719 394 866 433 924 39
57 105 101 181 122 86 24 106 33 136 65 29 30 29 30 32 183 4 169 -7 217 -51
237 -29 13 -37 54 -37 195 l0 94 -27 0 c-16 0 -109 -7 -208 -15 -309 -25 -548
-29 -755 -10 -241 21 -400 28 -400 17 0 -11 -430 -32 -630 -31 -241 1 -450 14
-459 28 -6 9 -29 9 -97 2 -49 -6 -126 -7 -171 -3 -49 5 -84 4 -86 -2 -10 -30
-672 -31 -1082 -1 -115 8 -213 15 -217 15 -5 0 -8 -11 -8 -25 0 -14 -1 -25 -3
-25 -2 0 -37 11 -77 25 -142 48 -228 60 -455 60 -240 0 -354 -17 -536 -81
-274 -95 -529 -280 -674 -489 -27 -38 -52 -74 -56 -79 -5 -5 -6 29 -2 76 8
112 0 146 -44 197 l-36 42 7 79 6 78 -52 38 c-29 21 -55 39 -57 41 -3 2 30 39
72 82 105 108 131 164 125 275 -3 66 -10 92 -35 141 -18 33 -36 84 -42 114
-36 174 -199 320 -409 367 -96 21 -261 15 -342 -14 -150 -53 -258 -139 -312
-250 -42 -84 -50 -198 -22 -288 24 -77 92 -166 165 -217 33 -23 88 -67 122
-97 34 -30 73 -63 87 -72 21 -15 23 -19 10 -27 -19 -13 -176 -71 -212 -78
l-28 -5 0 71 c0 67 -1 71 -22 71 -13 0 -126 -11 -253 -25 -126 -14 -286 -25
-355 -25 -113 0 -588 24 -650 33 -14 2 -19 2 -12 0 10 -4 12 -66 10 -304 -3
-279 -2 -299 15 -299 23 0 21 -15 -11 -77 l-27 -52 0 187 c0 206 -9 245 -60
258 l-25 6 0 138 c0 124 2 139 18 143 9 2 1 2 -18 0 -106 -11 -368 -24 -610
-29 -216 -5 -332 -3 -540 12 -406 28 -553 21 -732 -33 l-87 -26 -131 78 c-150
89 -117 90 -310 -5 -63 -32 -160 -74 -215 -95 -87 -32 -374 -110 -473 -129
-32 -6 -33 -5 -28 22 6 26 0 31 -156 124 l-163 98 -100 -19 c-193 -38 -403
-60 -798 -86 -257 -16 -244 -18 -325 37 -34 24 -40 32 -33 47 17 32 107 70
258 110 166 45 318 103 470 180 141 71 152 73 192 22 36 -45 68 -59 100 -41
32 17 26 48 -14 71 -27 16 -35 28 -35 49 0 23 20 47 112 132 141 129 177 165
307 306 57 63 115 118 129 123 19 7 33 5 59 -11 19 -11 41 -20 49 -20 23 0 16
36 -11 54 -14 9 -25 24 -25 34 0 10 -7 27 -15 39 -15 21 -12 29 33 120 70 139
136 309 172 443 54 198 86 248 189 293 33 15 166 48 331 81 327 66 685 140
756 156 27 6 65 20 82 31 38 22 35 36 -17 71 -19 13 -36 29 -39 36 -5 17 53
40 140 53 40 6 105 21 143 34 69 23 70 24 73 61 l3 37 -72 -7 c-124 -11 -2412
-7 -2424 5 -5 5 -15 48 -21 95 -11 83 -25 114 -49 114 -7 0 -15 -14 -19 -31z
m803 -628 c16 -10 15 -17 -33 -186 -29 -105 -62 -200 -95 -270 -54 -120 -102
-213 -126 -245 -14 -18 -25 -37 -25 -42 0 -8 -73 -117 -102 -152 -167 -204
-299 -340 -382 -396 -21 -14 -50 -35 -66 -48 -106 -84 -440 -267 -525 -288
-16 -4 -41 -12 -55 -19 -34 -18 -78 -33 -120 -40 -19 -4 -59 -15 -88 -26 -61
-22 -111 -24 -135 -6 -14 10 -14 19 -5 57 19 81 36 110 73 126 19 8 35 18 35
23 0 5 13 14 29 21 21 8 32 21 36 43 38 181 69 290 96 331 36 53 126 117 193
136 l47 13 50 -54 c45 -49 75 -88 147 -195 12 -19 27 -34 33 -34 17 0 52 21
82 48 31 29 34 59 11 104 -9 16 -22 53 -29 82 -8 28 -23 69 -34 91 -28 53 -28
136 0 181 30 48 106 112 148 124 45 12 91 13 91 1 0 -5 16 -15 36 -21 20 -7
45 -23 57 -36 11 -13 29 -24 38 -24 10 0 21 -5 25 -11 3 -6 20 -19 37 -29 27
-17 33 -17 58 -4 37 19 59 52 59 89 0 25 -19 52 -104 144 -99 108 -127 155
-110 183 15 25 97 51 324 103 86 20 96 26 104 63 22 96 30 112 66 129 33 15
113 40 135 42 6 0 16 -3 24 -8z m-409 -1136 c-7 -8 -17 -15 -23 -15 -5 0 -2 9
8 20 21 23 35 19 15 -5z m-40 -42 c0 -12 -95 -103 -107 -103 -7 0 -13 -6 -13
-14 0 -17 -47 -49 -60 -41 -13 8 -1 35 16 35 7 0 42 29 78 65 58 58 86 77 86
58z m5366 -171 c48 -24 101 -81 110 -118 11 -44 -2 -112 -29 -148 -39 -50
-118 -86 -190 -86 -84 0 -135 18 -183 65 -80 77 -82 172 -3 247 22 21 61 44
87 53 62 20 156 14 208 -13z m-11736 0 l23 -18 -17 -140 c-9 -76 -20 -213 -25
-304 -14 -238 -23 -729 -14 -768 l8 -34 100 83 c323 266 383 294 635 292 120
-1 161 -5 240 -26 236 -62 386 -179 475 -372 56 -120 69 -192 69 -360 0 -172
-20 -273 -78 -400 -99 -214 -315 -425 -561 -548 -349 -174 -816 -188 -1218
-37 l-59 22 6 57 c21 200 40 1481 28 1886 -9 302 -12 319 -64 350 -27 16 -46
17 -158 12 -69 -3 -134 -9 -144 -13 -15 -6 -17 -1 -14 46 l3 53 125 33 c155
42 397 122 510 168 100 41 101 41 130 18z m-7565 -87 c182 0 417 3 523 7 l192
8 0 -50 c0 -58 25 -49 -233 -90 -103 -16 -201 -37 -217 -45 -65 -33 -63 -21
-69 -528 -4 -254 -5 -465 -3 -469 2 -5 374 -8 828 -8 l824 0 -1 393 c-1 471
-6 558 -34 587 -23 23 -88 39 -315 78 l-165 28 -3 52 -3 53 203 -8 c261 -10
862 -10 1091 0 l178 8 -3 -53 -3 -52 -155 -27 c-298 -51 -320 -59 -342 -131
-19 -61 -18 -2054 1 -2111 20 -58 66 -75 326 -117 194 -31 175 -23 175 -80 l0
-50 -277 7 c-349 10 -717 10 -985 1 l-208 -8 0 50 c0 43 3 50 23 55 12 3 107
21 210 40 278 50 269 40 279 325 3 113 7 332 7 486 l1 281 -480 8 c-264 4
-636 4 -828 0 l-347 -8 3 -474 c2 -335 6 -485 15 -511 18 -55 69 -76 282 -112
99 -17 190 -33 203 -35 19 -5 22 -12 22 -55 l0 -50 -262 7 c-334 10 -733 10
-1005 1 l-213 -8 0 49 c0 39 4 51 18 55 9 2 103 19 207 36 244 41 255 45 280
95 20 39 20 59 19 1086 0 969 -1 1048 -17 1073 -28 42 -66 54 -269 86 -106 17
-203 33 -215 36 -20 4 -23 11 -23 54 l0 50 218 -8 c119 -4 366 -7 547 -7z
m13470 -115 c-21 -23 -45 -26 -45 -6 0 16 15 24 44 25 18 1 18 0 1 -19z m-65
-45 c0 -12 -79 -44 -85 -34 -14 22 5 39 45 39 22 0 40 -2 40 -5z m-116 -53 c6
-10 -56 -42 -79 -42 -35 0 -6 35 35 43 14 2 28 5 32 6 4 0 9 -3 12 -7z m-169
-82 c-60 -24 -75 -25 -75 -6 0 17 20 23 80 24 l45 1 -50 -19z m-152 -47 c-13
-2 -33 -2 -45 0 -13 2 -3 4 22 4 25 0 35 -2 23 -4z m-11550 -145 l127 -21 0
-202 0 -202 -82 -6 c-109 -9 -731 -9 -793 0 l-48 6 5 116 c10 219 49 260 288
301 247 42 290 43 503 8z m9286 -299 c579 -54 907 -407 878 -944 -27 -489
-359 -823 -902 -906 -102 -16 -355 -15 -463 0 -259 38 -480 149 -620 314 -62
72 -133 213 -157 310 -36 150 -36 388 0 529 37 147 97 255 202 368 238 254
616 371 1062 329z m8684 -36 c-6 -32 -25 -329 -33 -518 -12 -297 -12 -794 0
-913 11 -100 27 -143 64 -167 13 -9 87 -32 165 -52 l141 -36 0 -49 0 -48 -147
7 c-191 10 -461 10 -740 0 l-223 -8 0 48 0 48 128 31 c233 57 237 61 252 299
12 189 12 735 1 886 -10 126 -23 158 -75 183 -35 17 -51 18 -172 10 l-134 -9
0 47 c0 46 1 47 38 57 279 72 433 121 588 189 l89 39 30 -19 c17 -10 29 -21
28 -25z m1812 37 c50 -6 117 -17 150 -25 81 -20 209 -85 266 -135 90 -77 158
-210 173 -340 4 -30 9 -72 12 -92 5 -35 4 -38 -38 -59 -24 -12 -64 -36 -89
-54 l-46 -33 -626 -4 c-344 -2 -629 -7 -633 -11 -11 -11 15 -259 37 -344 76
-300 282 -482 565 -500 197 -12 434 51 705 188 l57 28 40 -52 c23 -28 40 -52
39 -53 -21 -20 -504 -299 -544 -314 -205 -77 -487 -86 -687 -23 -258 81 -461
268 -551 506 -80 213 -71 537 20 742 173 392 651 631 1150 575z m-16873 -39
c200 -52 316 -160 354 -328 15 -70 16 -117 8 -502 -13 -612 -11 -638 48 -692
57 -55 145 -48 281 20 l76 38 30 -31 c17 -18 31 -35 31 -38 0 -11 -312 -230
-354 -248 -87 -38 -250 -34 -335 9 -58 30 -108 93 -128 161 -10 33 -22 60 -26
60 -5 0 -21 -8 -35 -19 -52 -36 -246 -142 -312 -170 -108 -46 -209 -65 -345
-65 -138 1 -224 18 -317 65 -76 38 -175 135 -208 204 -22 45 -25 63 -25 170 0
116 1 123 33 187 46 94 129 174 239 231 132 68 686 281 916 353 l57 18 0 50
c0 28 -7 81 -14 117 -40 187 -132 257 -351 267 -133 5 -200 -7 -296 -55 -92
-46 -171 -121 -244 -232 -65 -99 -66 -100 -158 -84 -35 5 -38 8 -34 32 8 48
48 286 53 317 4 28 11 34 62 53 155 57 411 116 587 135 95 10 331 -3 407 -23z
m1689 12 c18 -11 27 -23 24 -33 -15 -49 -47 -370 -37 -370 2 0 62 54 135 121
217 199 291 242 438 259 75 9 172 1 250 -20 l36 -10 -27 -119 c-15 -65 -33
-151 -40 -190 l-13 -71 -53 0 -53 0 -22 49 c-53 124 -159 150 -307 75 -175
-88 -288 -230 -329 -416 -20 -88 -21 -514 -3 -693 20 -189 44 -209 313 -261
l87 -17 0 -48 0 -49 -152 8 c-196 9 -526 9 -790 -1 l-208 -7 0 48 0 48 123 28
c67 16 146 37 175 48 90 34 86 8 90 623 2 292 0 554 -3 583 -8 67 -36 101 -93
112 -39 7 -184 -1 -260 -15 l-33 -6 3 51 3 51 170 44 c184 47 359 106 470 160
39 18 72 34 73 34 2 1 17 -7 33 -16z m9168 -2 l23 -18 -15 -114 c-21 -153 -30
-269 -21 -269 4 0 43 35 88 78 259 248 358 303 544 304 84 1 183 -14 210 -31
11 -7 8 -33 -17 -142 -16 -74 -33 -158 -37 -186 l-7 -53 -57 0 -57 0 -12 40
c-25 82 -116 139 -201 125 -89 -15 -239 -109 -315 -197 -100 -118 -134 -228
-142 -468 -6 -168 10 -513 27 -584 15 -66 39 -88 126 -118 43 -15 121 -35 172
-44 l92 -18 0 -48 0 -48 -152 8 c-197 9 -526 9 -795 -1 l-213 -7 0 48 0 49
108 22 c152 33 232 61 254 91 35 47 40 140 36 677 -4 609 2 577 -107 603 -30
8 -173 -1 -258 -15 l-33 -6 0 50 c0 47 2 51 28 57 219 49 450 121 602 189 52
24 97 43 100 44 3 0 16 -8 29 -18z m-2603 -35 c20 -14 20 -18 8 -118 -36 -292
-44 -958 -14 -1127 33 -189 173 -291 401 -291 208 0 425 107 502 247 60 111
70 222 59 664 -12 430 -10 425 -176 448 -42 6 -99 11 -125 11 -27 0 -63 3 -80
6 -31 6 -32 8 -29 53 l3 46 115 7 c150 10 386 34 527 55 93 13 117 14 143 3
29 -12 30 -15 25 -54 -28 -202 -47 -1069 -27 -1241 19 -164 41 -181 222 -172
63 4 125 9 138 13 21 6 22 3 22 -45 0 -47 -2 -51 -27 -57 -255 -57 -423 -109
-598 -184 l-110 -47 -33 20 c-18 11 -31 25 -28 32 4 13 21 127 30 213 2 23 0
42 -5 42 -5 0 -48 -29 -95 -64 -122 -90 -257 -169 -342 -199 -142 -52 -341
-58 -521 -16 -203 47 -331 174 -360 359 -6 38 -11 243 -11 490 0 531 -12 651
-65 686 -36 23 -120 43 -215 49 -132 9 -130 8 -130 59 0 51 8 56 83 56 75 0
372 29 506 50 149 22 182 23 207 6z m4074 -11 c52 0 195 4 318 8 l222 8 0 -45
c0 -39 -3 -46 -22 -50 -13 -3 -61 -12 -108 -21 -96 -19 -130 -41 -130 -88 0
-16 40 -122 89 -236 100 -231 391 -834 406 -840 6 -2 79 139 162 315 298 623
335 714 319 777 -8 35 -55 64 -128 79 l-58 12 0 49 0 49 188 -9 c232 -10 297
-10 445 0 l117 8 0 -48 0 -48 -63 -17 c-93 -24 -174 -66 -208 -107 -33 -40
-316 -602 -603 -1201 l-185 -385 -66 -3 -65 -3 -142 293 c-212 438 -498 1007
-578 1148 -94 166 -132 204 -235 235 -44 14 -96 28 -115 33 -33 8 -35 11 -38
56 l-3 47 193 -8 c106 -4 236 -8 288 -8z m5750 0 c52 0 193 4 313 8 l218 8 -3
-48 c-3 -45 -5 -48 -33 -51 -64 -7 -200 -43 -217 -59 -34 -31 -23 -86 56 -268
64 -150 394 -875 401 -883 1 -2 109 198 239 444 l236 447 -47 88 c-81 154
-114 181 -273 218 l-75 18 -3 47 -3 48 223 -9 c276 -10 331 -10 591 0 l208 8
-3 -47 -3 -48 -79 -13 c-95 -16 -160 -43 -176 -74 -7 -13 -10 -39 -7 -64 13
-90 437 -1019 457 -999 25 26 388 880 421 991 23 80 -10 118 -123 144 l-58 14
0 48 0 48 158 -8 c196 -10 239 -10 435 0 l157 8 0 -46 c0 -28 -5 -47 -12 -49
-180 -51 -244 -88 -292 -170 -37 -63 -213 -444 -481 -1038 l-229 -508 -66 0
-67 0 -268 581 c-148 319 -272 582 -275 584 -4 2 -141 -259 -306 -580 l-299
-585 -71 0 -70 0 -209 448 c-115 246 -285 598 -376 783 -199 399 -197 397
-362 449 -56 18 -108 34 -114 36 -8 2 -13 21 -13 49 l0 46 203 -8 c111 -4 245
-8 297 -8z m-9167 -692 c14 -283 5 -426 -32 -488 -21 -37 -108 -81 -174 -89
l-49 -6 4 288 c3 285 3 288 28 337 32 62 89 95 166 95 l51 0 6 -137z m-7878
-63 c4 -34 4 -161 0 -282 l-8 -222 -35 40 c-19 21 -57 62 -84 91 l-48 52 -31
-16 c-16 -8 -32 -13 -35 -11 -2 3 0 64 5 136 8 107 14 139 32 172 32 57 101
97 171 99 25 1 26 -2 33 -59z m9165 -169 l0 -229 -47 -6 c-27 -3 -69 -9 -95
-12 l-48 -6 0 141 c0 182 11 232 61 282 34 34 77 55 117 58 9 1 12 -51 12
-228z m-7650 12 c0 -127 -15 -553 -26 -746 l-7 -118 -18 30 c-10 16 -30 37
-44 47 -24 16 -25 19 -25 133 l0 117 -156 31 c-85 17 -158 34 -162 38 -4 4 -7
91 -6 193 1 208 15 287 61 337 44 47 75 54 236 55 l147 0 0 -117z m-5331 -150
c-1 -87 -4 -187 -8 -223 l-6 -65 -235 -43 -235 -44 -110 17 c-60 9 -158 26
-217 37 l-108 20 0 142 c0 77 5 159 11 181 16 57 75 110 136 123 26 5 211 10
411 11 l362 1 -1 -157z m20041 -25 c-19 -12 -80 -43 -135 -69 -256 -122 -461
-148 -555 -71 -27 23 -32 33 -26 55 7 30 39 64 76 80 28 12 237 23 500 25
l175 2 -35 -22z"/>
<path d="M23055 12465 c-22 -8 -64 -14 -92 -14 -39 -1 -58 -6 -73 -21 -24 -24
-25 -38 -4 -68 53 -76 222 -70 278 10 19 27 21 79 4 96 -15 15 -61 14 -113 -3z"/>
<path d="M11264 12463 c-36 -43 -72 -87 -78 -98 -9 -15 -10 -155 -6 -540 5
-473 7 -523 23 -552 17 -31 17 -35 1 -65 -15 -28 -19 -79 -25 -308 -4 -151 -8
-383 -8 -516 -1 -240 -1 -241 -23 -251 -29 -14 -108 -82 -108 -93 0 -12 167
-65 291 -91 135 -29 396 -32 534 -5 263 50 484 160 662 329 203 192 293 391
293 645 0 182 -33 288 -117 382 -45 50 -92 80 -124 80 -16 0 -14 -10 21 -77
150 -297 98 -712 -122 -986 -162 -201 -391 -316 -673 -337 -201 -15 -469 29
-556 91 -26 18 -27 22 -14 36 9 8 24 32 35 52 17 34 19 69 22 452 l3 414 27
63 c123 288 437 456 754 403 176 -30 427 -193 541 -350 2 -2 5 -2 8 1 10 10
-35 131 -67 181 -44 69 -130 141 -222 186 -122 60 -190 75 -336 75 -116 1
-130 -2 -201 -30 -96 -39 -219 -119 -332 -216 -89 -76 -133 -98 -201 -98 -45
0 -46 14 -7 84 l29 51 6 375 c5 330 18 566 42 738 3 28 4 52 1 52 -4 0 -36
-35 -73 -77z"/>
<path d="M10840 12371 c-11 -8 0 -11 43 -11 82 0 247 -41 247 -61 0 -5 5 -9
11 -9 6 0 9 10 7 22 -5 34 -83 60 -198 65 -57 2 -101 0 -110 -6z"/>
<path d="M11780 11444 c-159 -41 -321 -169 -390 -309 l-35 -70 -3 -446 -3
-447 84 -30 c125 -45 221 -62 355 -62 333 0 572 164 660 452 46 148 50 361 11
516 -50 199 -193 347 -384 398 -65 18 -225 17 -295 -2z m389 -454 c19 -61 20
-296 2 -370 -22 -90 -58 -156 -112 -204 -57 -51 -117 -75 -212 -83 l-69 -6 4
229 c3 227 3 230 31 289 58 124 167 197 287 192 l54 -2 15 -45z"/>
<path d="M4155 12449 c-148 -10 -218 -34 -318 -112 l-38 -29 5 -507 c2 -278 4
-513 4 -521 0 -8 -2 -260 -5 -560 l-4 -545 -77 -58 c-99 -73 -151 -92 -314
-115 l-133 -18 505 0 505 -1 -130 23 c-127 22 -225 57 -225 78 1 6 5 31 10 56
5 25 10 262 10 527 l0 482 24 28 24 28 864 7 c474 3 872 8 883 9 11 2 39 0 63
-4 37 -6 42 -5 42 11 0 17 -12 20 -122 25 -66 4 -488 7 -937 7 -802 0 -891 3
-891 32 0 6 11 30 24 52 24 41 24 41 31 481 7 473 8 481 62 537 34 35 85 54
203 74 52 8 97 17 99 20 5 5 -12 4 -164 -7z"/>
<path d="M6248 12449 c-54 -4 -125 -16 -159 -25 -61 -17 -159 -74 -192 -111
-16 -19 -17 -80 -17 -1075 l0 -1054 -68 -52 c-105 -80 -176 -108 -327 -129
l-130 -19 495 0 c306 -1 478 3 450 8 -25 5 -81 16 -125 24 -44 9 -97 25 -119
37 l-38 22 8 60 c5 33 9 512 10 1065 0 1092 0 1088 55 1147 37 39 73 53 213
83 139 30 127 34 -56 19z"/>
<path d="M3382 12445 c4 -4 40 -13 80 -20 40 -8 88 -17 107 -21 23 -5 32 -4
28 3 -4 6 -28 16 -54 21 -66 15 -170 25 -161 17z"/>
<path d="M5422 12445 c9 -10 228 -46 253 -42 36 6 -86 36 -175 43 -47 4 -82 3
-78 -1z"/>
<path d="M14141 11658 c-99 -12 -241 -59 -321 -105 -79 -46 -213 -178 -259
-256 -81 -138 -117 -316 -108 -532 9 -218 65 -378 174 -495 31 -33 58 -59 60
-56 3 2 -6 44 -20 93 -54 193 -67 308 -63 569 3 175 7 221 24 284 82 292 300
464 617 486 185 13 356 -35 520 -146 107 -73 204 -159 264 -233 30 -37 56 -65
58 -63 9 9 -35 93 -81 152 -173 229 -509 347 -865 302z"/>
<path d="M14141 11599 c-189 -37 -341 -147 -414 -299 -51 -107 -67 -199 -67
-387 0 -261 21 -376 96 -531 114 -235 347 -366 619 -349 169 11 306 70 416
178 74 73 116 150 151 276 19 68 22 104 22 283 0 180 -2 216 -22 295 -27 108
-86 232 -140 297 -96 115 -241 205 -377 233 -76 16 -214 18 -284 4z m410 -420
c32 -10 41 -19 64 -70 39 -87 55 -192 55 -353 0 -223 -41 -352 -133 -414 -60
-41 -99 -52 -186 -52 -132 0 -231 66 -248 167 -4 26 -8 131 -8 233 0 164 3
193 22 255 38 118 114 198 218 231 51 16 166 17 216 3z"/>
<path d="M15112 11258 c12 -29 33 -93 47 -143 22 -81 25 -109 25 -270 0 -155
-3 -192 -22 -265 -82 -312 -297 -525 -610 -607 -79 -21 -122 -25 -232 -26
-307 -2 -560 117 -736 344 -40 52 -114 187 -129 237 -11 39 -20 24 -22 -39
-10 -259 205 -467 555 -539 207 -42 459 -36 662 16 192 49 393 171 508 306 59
70 133 212 158 303 22 79 31 329 14 404 -30 139 -95 254 -175 308 -58 39 -68
32 -43 -29z"/>
<path d="M23056 11555 c-62 -79 -76 -103 -70 -119 4 -12 9 -304 11 -651 l3
-630 -52 -43 c-68 -55 -114 -76 -218 -103 -93 -25 -132 -45 -62 -34 23 4 184
7 357 8 174 1 305 5 293 9 -13 3 -55 16 -94 27 -40 11 -82 29 -95 40 l-23 19
-3 343 c-2 359 9 810 28 1061 6 81 9 152 7 159 -2 7 -39 -32 -82 -86z"/>
<path d="M22675 11491 l-40 -8 45 -2 c47 -1 168 -23 233 -41 39 -12 59 -7 41
9 -35 32 -200 57 -279 42z"/>
<path d="M24720 11659 c-113 -9 -198 -32 -298 -81 -164 -80 -339 -285 -367
-428 -3 -19 -13 -49 -21 -67 -27 -60 -36 -145 -31 -283 6 -161 29 -257 87
-369 42 -81 140 -195 148 -172 2 7 -1 18 -7 24 -6 6 -11 20 -11 32 0 12 -4 25
-8 30 -5 6 -16 46 -26 90 -10 44 -21 96 -26 115 -17 67 -30 205 -30 317 0 104
2 114 24 140 l24 28 189 7 c103 3 385 7 626 7 l439 1 65 42 c71 46 68 37 44
138 -14 56 -28 85 -64 132 -24 32 -76 68 -97 68 -3 0 4 -41 17 -91 l23 -92
-20 -33 c-12 -18 -36 -46 -56 -63 -71 -63 -72 -63 -419 -77 -439 -18 -706 -18
-749 0 -47 20 -51 31 -24 74 13 20 37 69 54 108 109 250 310 384 574 384 179
0 305 -46 478 -173 42 -30 51 -34 42 -17 -23 43 -106 112 -175 145 -118 57
-243 77 -405 64z"/>
<path d="M24690 11599 c-127 -14 -256 -81 -340 -176 -44 -50 -115 -186 -126
-241 l-6 -32 224 0 c218 0 575 14 708 28 l65 7 -3 35 c-4 48 -30 137 -53 182
-72 140 -264 221 -469 197z"/>
<path d="M24003 10440 c5 -111 30 -177 97 -256 95 -111 247 -203 390 -238 194
-47 473 -20 633 60 91 46 417 245 417 255 0 5 -2 9 -4 9 -2 0 -91 -43 -197
-95 -214 -104 -322 -140 -472 -157 -178 -20 -364 18 -512 104 -100 59 -228
192 -285 296 -72 131 -72 131 -67 22z"/>
<path d="M7598 11626 c-94 -17 -193 -49 -273 -89 -105 -51 -120 -67 -155 -164
-17 -48 -38 -98 -46 -110 -18 -28 -18 -33 0 -33 8 0 47 43 86 96 162 215 323
293 580 281 157 -7 304 -56 409 -134 26 -21 31 -22 23 -7 -29 54 -129 121
-222 149 -75 23 -300 29 -402 11z"/>
<path d="M8300 11442 c0 -5 7 -54 15 -110 13 -83 15 -175 11 -490 -3 -213 -10
-425 -16 -471 -11 -83 -11 -85 21 -163 17 -43 41 -85 53 -94 20 -14 22 -13 33
24 14 50 20 161 30 552 16 625 11 672 -70 731 -38 28 -77 38 -77 21z"/>
<path d="M7895 10961 c-391 -145 -528 -207 -632 -285 -183 -138 -228 -359
-100 -493 52 -56 57 -48 57 95 0 70 5 147 11 171 27 118 113 224 241 295 89
50 272 128 493 211 99 37 184 72 190 76 29 27 -75 -1 -260 -70z"/>
<path d="M8110 10973 c-144 -51 -435 -170 -538 -219 -213 -103 -286 -187 -286
-334 -1 -129 60 -222 183 -278 68 -31 170 -34 271 -9 100 26 246 102 301 157
59 59 76 112 89 275 11 144 13 415 3 414 -5 0 -15 -3 -23 -6z"/>
<path d="M8190 10261 c-31 -9 -91 -41 -135 -71 -102 -69 -243 -135 -341 -160
-94 -24 -226 -26 -308 -5 -123 32 -250 122 -318 225 -16 24 -17 24 -35 7 -13
-13 -18 -32 -18 -71 0 -46 5 -60 31 -93 74 -91 179 -139 333 -150 179 -12 335
30 531 144 215 125 216 125 298 121 l73 -3 -3 35 c-3 29 -7 35 -28 37 -14 1
-50 -6 -80 -16z"/>
<path d="M8295 10118 c-20 -42 -19 -102 2 -124 28 -27 81 -45 154 -51 98 -8
148 8 255 83 104 72 125 93 67 68 -175 -76 -269 -72 -405 17 l-57 38 -16 -31z"/>
<path d="M9753 11597 c-75 -81 -124 -151 -119 -171 2 -12 8 -43 11 -71 8 -58
24 -115 37 -132 17 -22 75 106 82 183 4 38 12 102 18 142 6 40 9 75 6 77 -2 3
-18 -10 -35 -28z"/>
<path d="M10565 11593 c-16 -9 -41 -24 -54 -34 -13 -10 -27 -16 -32 -13 -24
14 -119 21 -169 12 -103 -19 -205 -84 -355 -229 -103 -98 -136 -118 -210 -126
-43 -5 -55 -10 -64 -29 -23 -51 -34 -307 -28 -669 l6 -360 -57 -41 c-83 -60
-113 -73 -226 -99 l-101 -23 352 1 c193 1 349 5 347 8 -1 3 -27 11 -56 18 -29
6 -75 24 -102 39 l-49 27 -4 395 c-4 372 -3 401 16 495 42 198 128 324 306
445 85 58 150 79 242 80 53 0 97 -6 123 -16 22 -9 46 -14 54 -11 9 4 19 -9 31
-40 10 -24 21 -41 25 -36 7 7 50 191 50 213 0 14 -10 12 -45 -7z"/>
<path d="M9340 11471 c0 -4 35 -11 79 -14 43 -3 103 -15 132 -27 64 -24 59
-23 59 -5 0 22 -120 55 -201 55 -38 0 -69 -4 -69 -9z"/>
<path d="M18901 11574 c-99 -110 -103 -118 -91 -210 16 -123 39 -176 57 -126
4 9 18 35 33 57 23 34 28 55 34 135 4 52 12 114 18 137 16 68 5 69 -51 7z"/>
<path d="M19709 11577 c-46 -27 -60 -32 -85 -25 -53 16 -156 11 -210 -9 -77
-30 -169 -97 -281 -206 -106 -103 -165 -137 -238 -137 -24 0 -37 -6 -45 -20
-22 -41 -31 -254 -28 -638 l3 -394 -60 -45 c-75 -57 -107 -71 -225 -99 l-95
-22 352 1 c193 1 349 5 347 8 -2 4 -21 9 -42 12 -21 4 -67 21 -102 39 l-64 33
-5 255 c-12 532 -1 665 69 805 63 129 179 242 319 313 66 33 85 37 160 40 118
4 199 -20 223 -69 10 -19 21 -34 25 -34 5 0 49 183 52 218 2 13 -15 7 -70 -26z"/>
<path d="M18510 11470 c0 -5 21 -10 48 -10 26 0 81 -9 122 -20 85 -22 100 -24
100 -10 0 5 -30 18 -66 30 -70 21 -204 28 -204 10z"/>
<path d="M16265 11538 l-73 -73 8 -540 c8 -560 11 -590 54 -672 17 -33 64 -83
79 -83 5 0 5 15 1 33 -8 38 -11 122 -18 522 -5 298 5 572 28 778 7 62 8 107 3
107 -5 0 -42 -33 -82 -72z"/>
<path d="M17611 11544 l-71 -66 0 -492 c1 -314 -3 -518 -10 -566 -10 -69 -9
-81 12 -142 l22 -67 -21 -23 c-29 -33 -153 -217 -153 -228 0 -13 -5 -15 96 29
76 33 167 65 384 134 l45 14 -78 2 c-85 1 -118 7 -160 28 -28 14 -28 16 -22
66 4 28 9 270 10 537 2 426 13 700 30 808 3 17 2 32 -3 32 -5 0 -42 -30 -81
-66z"/>
<path d="M17220 11551 c21 -11 129 -24 110 -12 -8 4 -40 11 -70 14 -31 4 -48
3 -40 -2z"/>
<path d="M15871 11547 c3 -4 39 -13 80 -22 41 -9 83 -18 94 -20 11 -3 0 5 -24
16 -39 19 -164 40 -150 26z"/>
<path d="M17385 10307 c-33 -13 -88 -45 -122 -73 -177 -143 -416 -227 -598
-210 -188 18 -339 91 -434 212 -24 31 -37 25 -50 -21 -18 -67 8 -128 76 -178
149 -107 455 -129 663 -47 68 27 172 89 290 175 124 89 145 98 215 98 33 0 67
-1 75 -4 11 -3 15 5 15 31 0 33 -2 35 -35 37 -19 1 -62 -8 -95 -20z"/>
<path d="M20705 11584 c-52 -18 -155 -99 -155 -121 0 -10 29 -76 64 -148 429
-881 489 -999 501 -997 6 1 11 17 13 37 3 27 -15 72 -81 207 -153 312 -207
424 -207 432 0 4 -9 26 -19 49 -60 134 -151 360 -151 376 0 53 58 138 115 169
18 10 17 11 -10 11 -16 0 -48 -7 -70 -15z"/>
<path d="M22044 11585 c-33 -7 -84 -23 -112 -35 -46 -20 -53 -27 -62 -64 -26
-99 -52 -159 -200 -471 -331 -693 -335 -701 -382 -736 -24 -17 -59 -37 -78
-45 -19 -8 -38 -20 -42 -27 -15 -25 -76 55 -143 191 -91 182 -365 752 -365
757 0 2 -22 50 -48 107 -27 57 -54 119 -62 138 -19 50 -27 58 -89 90 -101 50
-112 49 -55 -6 28 -27 69 -80 91 -119 22 -38 52 -90 66 -115 14 -25 40 -74 58
-110 18 -36 38 -72 44 -80 12 -14 167 -320 228 -450 15 -30 31 -62 36 -70 5
-8 17 -34 27 -57 9 -24 21 -43 26 -43 4 0 8 -7 8 -15 0 -8 20 -54 45 -103 25
-49 45 -93 45 -99 0 -6 6 -16 14 -22 8 -7 17 -24 21 -38 3 -15 13 -32 22 -38
22 -16 30 -115 13 -156 -16 -37 -3 -54 33 -45 20 5 48 56 172 313 438 909 593
1214 643 1265 15 15 56 43 92 63 72 38 61 43 -46 20z"/>
<path d="M26422 11575 c-29 -14 -74 -41 -99 -62 -39 -32 -44 -41 -40 -68 3
-16 95 -221 205 -455 110 -234 224 -477 253 -540 30 -63 60 -124 66 -135 13
-20 13 -20 28 -1 20 26 19 44 -4 92 -10 21 -39 84 -64 140 -43 96 -64 142
-147 319 -20 44 -45 98 -54 120 -10 22 -24 54 -31 70 -8 17 -32 73 -53 125
-78 187 -87 235 -58 305 22 52 43 74 91 96 l40 19 -40 0 c-22 0 -64 -11 -93
-25z"/>
<path d="M27747 11582 c-61 -22 -156 -91 -163 -118 -3 -12 6 -51 21 -89 15
-37 29 -83 32 -103 4 -36 3 -38 -53 -67 -32 -16 -72 -43 -88 -61 -18 -17 -121
-204 -235 -424 -113 -217 -218 -408 -233 -426 -16 -18 -61 -48 -100 -68 l-72
-36 -24 23 c-26 24 -90 151 -265 532 -63 138 -133 290 -156 339 -50 106 -123
276 -142 331 -12 34 -24 45 -84 77 -80 43 -108 49 -80 18 10 -11 26 -22 36
-25 10 -4 32 -26 49 -51 24 -36 196 -371 248 -484 7 -14 16 -32 21 -40 6 -8
19 -35 30 -60 11 -25 25 -52 31 -60 5 -8 28 -55 51 -105 43 -93 91 -195 164
-350 23 -49 55 -117 70 -150 15 -33 34 -68 42 -77 15 -17 14 -79 -2 -155 -7
-31 -6 -33 22 -33 17 0 37 8 45 18 9 9 143 266 299 571 178 347 292 559 307
568 26 18 100 28 134 20 17 -5 33 -27 60 -84 114 -241 158 -335 158 -339 0 -2
21 -48 46 -101 25 -54 57 -123 71 -153 95 -204 135 -285 144 -290 11 -8 15
-133 4 -177 -7 -31 -5 -33 19 -33 15 0 31 9 40 23 8 12 125 265 259 562 300
664 408 893 447 949 32 48 83 91 145 125 l40 22 -55 -6 c-30 -4 -91 -21 -135
-38 l-80 -32 -11 -50 c-15 -66 -40 -129 -209 -515 -280 -638 -279 -637 -375
-682 -25 -11 -53 -28 -63 -37 -34 -28 -79 41 -212 324 -111 235 -208 451 -246
545 -37 92 -37 94 -11 63 15 -17 106 -201 202 -409 178 -385 206 -437 221
-412 16 24 9 68 -20 131 -16 34 -40 87 -54 117 -14 30 -41 89 -60 130 -36 77
-119 262 -142 315 -7 17 -27 64 -45 105 -81 186 -95 273 -57 347 18 34 66 76
107 92 47 18 -40 12 -93 -7z"/>
<path d="M26025 11550 c3 -5 16 -10 28 -10 18 0 19 2 7 10 -20 13 -43 13 -35
0z"/>
<path d="M27440 11501 c0 -4 14 -26 31 -47 17 -22 42 -56 55 -76 44 -68 73
-33 40 47 -11 24 -29 41 -65 59 -55 29 -61 30 -61 17z"/>
<path d="M12183 14414 c-7 -3 -13 -19 -13 -35 0 -24 4 -29 24 -29 13 0 66 -11
117 -24 52 -13 114 -27 139 -31 64 -10 131 -30 176 -53 21 -11 59 -23 84 -27
58 -9 63 -13 45 -31 -22 -22 -19 -32 16 -49 30 -16 243 -65 454 -105 55 -11
177 -35 270 -55 192 -40 417 -85 427 -85 4 0 8 19 10 43 l3 42 44 3 c52 4 120
-19 148 -51 14 -14 24 -47 31 -96 7 -47 18 -81 30 -95 11 -11 23 -41 27 -66 4
-25 20 -64 36 -88 16 -24 29 -52 29 -63 0 -11 14 -34 30 -51 19 -19 30 -40 30
-58 0 -20 11 -40 34 -62 18 -18 36 -44 39 -58 9 -37 67 -120 91 -132 18 -7 28
-3 58 23 19 18 64 43 99 57 133 50 155 59 199 79 25 11 62 23 84 26 21 3 46
13 56 22 16 14 90 22 90 8 0 -8 -45 -68 -88 -117 -19 -21 -30 -42 -25 -47 4
-4 51 3 103 16 85 23 170 33 170 20 0 -10 -73 -141 -90 -160 -9 -11 -27 -38
-40 -60 -13 -22 -43 -66 -67 -98 -127 -169 -134 -191 -73 -222 45 -23 54 -18
239 158 52 49 106 96 120 105 14 9 39 26 54 39 16 13 35 23 44 23 21 0 10 -54
-28 -137 -45 -99 -41 -103 51 -41 l62 42 -7 56 c-16 116 -13 140 20 163 17 11
32 22 35 25 8 6 -32 32 -51 32 -17 0 -118 56 -172 95 -135 98 -239 196 -334
315 -29 36 -61 75 -72 88 -12 12 -21 29 -21 38 0 8 -12 33 -26 55 -14 23 -33
65 -41 93 -8 28 -19 56 -23 61 -5 6 -18 46 -30 90 -12 43 -23 81 -25 85 -7 11
-28 175 -29 232 -1 31 -7 62 -13 70 -9 11 -208 13 -1125 16 -612 1 -1180 4
-1263 7 -82 3 -156 2 -162 -1z m2468 -678 c178 -36 222 -50 254 -86 31 -34 10
-55 -203 -200 -41 -28 -77 -50 -82 -50 -4 0 -13 -7 -20 -15 -7 -8 -25 -21 -41
-30 -16 -8 -42 -22 -59 -31 -49 -25 -72 -16 -91 38 -9 26 -26 59 -38 74 -11
15 -21 36 -21 48 0 11 -11 44 -25 71 -13 28 -24 66 -25 85 0 73 61 129 141
130 20 0 114 -15 210 -34z"/>
<path d="M14230 13145 c-7 -8 -18 -15 -26 -15 -7 0 -30 -16 -49 -36 -20 -20
-48 -39 -63 -43 -18 -5 -27 -14 -27 -27 0 -29 37 -29 80 0 21 15 48 26 61 26
13 0 39 8 58 18 40 19 47 49 18 75 -23 21 -36 21 -52 2z"/>
<path d="M14635 12720 c3 -5 11 -10 16 -10 6 0 7 5 4 10 -3 6 -11 10 -16 10
-6 0 -7 -4 -4 -10z"/>
<path d="M14690 12671 c0 -13 26 -32 33 -24 8 7 -11 33 -24 33 -5 0 -9 -4 -9
-9z"/>
<path d="M14768 12594 c5 -26 -19 -82 -50 -119 -9 -11 -28 -42 -42 -69 -45
-86 -32 -88 48 -9 58 58 63 61 135 101 46 25 45 23 30 56 -7 15 -30 32 -62 45
-63 27 -65 26 -59 -5z"/>
<path d="M14918 12505 c-18 -18 98 -121 152 -136 25 -7 53 -20 63 -31 10 -10
32 -18 52 -18 25 0 44 -8 67 -30 17 -16 38 -30 46 -30 8 0 40 -13 71 -29 90
-47 292 -123 308 -117 12 5 13 9 3 21 -8 9 -8 15 -2 15 6 0 14 9 17 21 8 24
-28 69 -55 69 -9 0 -32 8 -51 17 -19 10 -64 20 -101 24 -49 4 -79 13 -108 33
-25 17 -53 26 -78 26 -28 0 -44 6 -60 24 -12 15 -37 27 -59 31 -21 3 -45 10
-53 16 -8 5 -28 18 -45 29 -16 11 -40 20 -51 20 -12 0 -28 9 -35 20 -14 20
-69 37 -81 25z"/>
<path d="M12640 9158 c-60 -16 -144 -30 -177 -30 -30 0 -32 -2 -39 -44 -5 -35
-10 -44 -23 -40 -20 6 -90 9 -163 7 -66 -1 -78 -13 -106 -103 -14 -47 -16
-172 -21 -1050 -6 -936 -7 -998 -24 -1015 -38 -38 -124 -13 -237 71 -30 22
-507 393 -1060 825 -1327 1036 -1217 955 -1253 928 -16 -11 -17 -59 -17 -685
0 -418 4 -691 10 -719 12 -54 31 -92 56 -115 18 -16 19 0 19 595 0 470 3 620
13 648 30 84 110 118 193 82 53 -24 -22 34 1134 -868 523 -407 985 -767 1027
-799 117 -88 171 -100 206 -48 16 24 17 106 23 947 6 1005 5 990 65 1092 24
42 121 143 137 143 4 0 7 -19 7 -42 0 -41 0 -41 20 -23 12 11 36 24 55 31 34
11 35 11 35 -12 0 -13 6 -24 13 -24 19 0 100 60 131 97 23 27 66 128 66 155 0
10 -45 9 -90 -4z"/>
<path d="M18935 9129 c-175 -17 -343 -66 -455 -134 l-60 -36 0 -54 c0 -30 4
-65 9 -78 11 -27 69 -97 81 -97 4 0 10 17 14 38 29 177 277 322 551 322 177 0
330 -40 512 -133 l88 -46 -62 59 c-64 60 -175 132 -241 156 -42 15 -289 17
-437 3z"/>
<path d="M5032 9077 c-34 -18 -82 -46 -106 -64 -42 -30 -46 -37 -84 -152 l-39
-121 22 -77 c28 -97 30 -120 60 -718 14 -269 28 -530 30 -580 l6 -90 -120
-100 c-66 -55 -120 -102 -121 -105 0 -3 106 -5 235 -5 129 0 235 3 235 7 0 4
-12 16 -27 28 -15 12 -49 42 -76 67 -42 40 -46 46 -32 57 25 18 25 172 0 621
-3 44 -7 130 -10 190 -3 61 -7 139 -10 175 -18 247 -22 451 -11 555 12 117 18
149 32 170 8 11 14 25 14 32 0 6 16 40 36 73 20 34 34 63 32 65 -2 3 -32 -10
-66 -28z"/>
<path d="M27307 9076 c-31 -19 -79 -53 -106 -77 l-51 -42 0 -339 c0 -268 3
-355 16 -414 12 -63 13 -82 3 -108 -9 -22 -14 -146 -18 -426 l-6 -395 -45 -41
c-25 -23 -78 -69 -118 -104 -40 -34 -72 -64 -70 -65 6 -6 408 8 408 14 0 4
-21 30 -46 59 -25 28 -41 52 -36 52 5 0 15 12 23 28 10 21 15 101 19 342 l5
315 27 51 c15 28 50 76 77 107 28 30 51 57 51 60 0 3 -30 8 -67 12 -108 10
-175 25 -170 38 2 7 12 37 22 67 10 30 26 79 36 107 16 46 18 90 19 339 l2
286 25 51 c15 29 37 67 51 85 31 41 20 40 -51 -2z"/>
<path d="M12000 9089 c0 -5 5 -7 10 -4 6 3 10 8 10 11 0 2 -4 4 -10 4 -5 0
-10 -5 -10 -11z"/>
<path d="M14190 9093 c-26 -10 -103 -66 -147 -106 l-43 -40 0 -836 -1 -836
-33 -25 c-67 -50 -216 -174 -216 -179 0 -3 106 -6 235 -6 129 0 235 3 235 6 0
4 -32 36 -72 70 -50 45 -66 65 -55 67 9 2 18 9 19 15 0 7 2 23 4 37 1 14 7 65
14 114 7 51 8 98 3 110 -8 21 -1 1322 8 1447 4 44 12 75 26 95 21 30 46 75 41
73 -2 0 -10 -3 -18 -6z"/>
<path d="M16406 9070 c-26 -17 -69 -51 -95 -75 l-49 -46 5 -327 c2 -180 8
-353 14 -384 7 -39 7 -70 -1 -96 -6 -23 -11 -205 -12 -453 l-3 -414 -50 -46
c-27 -26 -81 -72 -118 -104 -37 -31 -66 -59 -64 -62 3 -2 100 -1 217 3 l211 7
-54 56 -54 56 21 35 c20 33 21 49 23 340 4 427 3 418 49 482 21 29 49 61 61
71 13 10 23 22 23 26 0 5 -38 13 -85 19 -131 17 -130 16 -86 114 l36 83 5 331
5 331 29 37 c15 21 26 39 24 42 -3 2 -26 -10 -52 -26z"/>
<path d="M30192 9075 c-58 -33 -162 -115 -163 -129 0 -6 0 -372 1 -813 1 -441
-2 -817 -6 -835 -5 -26 -30 -54 -115 -128 -59 -52 -108 -99 -109 -104 0 -5 27
-6 61 -2 34 3 130 6 213 6 l150 0 -54 55 c-32 32 -51 59 -45 63 6 4 12 23 13
42 2 19 8 42 13 51 4 9 8 372 8 808 1 435 3 803 7 819 7 36 19 65 54 135 16
31 26 57 22 57 -4 0 -26 -11 -50 -25z"/>
<path d="M7432 9079 c-29 -5 -64 -15 -78 -22 -22 -12 -15 -15 93 -35 165 -32
348 -95 446 -154 l82 -49 -35 37 c-57 60 -187 152 -275 194 -87 43 -123 47
-233 29z"/>
<path d="M25032 9079 c-29 -5 -65 -15 -79 -22 -23 -13 -17 -15 92 -36 65 -12
161 -36 214 -53 88 -28 238 -95 269 -120 7 -6 15 -9 17 -6 8 8 -105 102 -184
153 -137 89 -201 105 -329 84z"/>
<path d="M15560 9043 c0 -21 7 -83 15 -138 18 -123 19 -177 3 -193 -16 -16 19
-54 46 -50 20 3 21 12 27 133 5 116 8 136 33 189 28 56 28 59 10 70 -29 17
-56 24 -96 25 -37 1 -38 0 -38 -36z"/>
<path d="M12745 9039 c-27 -19 -66 -58 -87 -88 l-38 -54 0 -108 c0 -84 3 -111
15 -123 22 -22 39 -9 112 89 133 178 300 232 690 223 181 -4 183 -4 183 17 0
51 -7 53 -280 59 -140 3 -320 9 -400 12 l-145 6 -50 -33z"/>
<path d="M27770 9060 c-129 -3 -236 -7 -238 -8 -2 -1 -12 -21 -22 -44 -18 -40
-20 -68 -20 -356 0 -338 3 -362 53 -395 15 -9 28 -17 31 -17 2 0 6 114 8 253
4 203 8 260 21 295 27 69 64 109 135 144 57 28 78 33 163 36 103 4 206 -12
303 -49 28 -10 52 -17 54 -14 2 2 -18 27 -44 56 -51 54 -151 111 -189 107 -11
-1 -126 -5 -255 -8z"/>
<path d="M14734 9053 l-361 -3 -14 -28 c-11 -22 -14 -156 -17 -707 -3 -670 5
-993 28 -1068 6 -21 23 -52 38 -68 l27 -30 -3 713 c-4 726 1 886 33 960 22 54
76 103 142 130 55 22 70 23 288 23 204 0 240 -3 318 -23 48 -12 98 -27 109
-33 18 -10 20 -9 14 6 -11 30 -50 72 -96 104 -38 26 -54 31 -95 29 -28 -2
-212 -4 -411 -5z"/>
<path d="M17300 9050 c-85 -3 -269 -4 -409 -1 -238 4 -255 3 -267 -14 -11 -15
-14 -90 -14 -366 l0 -348 22 -15 c12 -9 33 -16 45 -16 l23 0 0 228 c0 266 8
310 69 371 21 21 65 49 97 62 57 23 67 24 349 24 268 0 296 -2 371 -22 44 -12
88 -25 99 -29 35 -14 -43 84 -89 111 -32 19 -55 25 -92 23 -27 -1 -119 -4
-204 -8z"/>
<path d="M19960 9057 c0 -23 25 -196 40 -275 21 -110 18 -131 -21 -153 l-21
-11 24 -25 c34 -37 57 -47 74 -32 21 17 20 54 -16 382 -8 82 -27 117 -62 117
-10 0 -18 -1 -18 -3z"/>
<path d="M30410 9045 c-39 -47 -40 -79 -40 -940 0 -889 0 -884 49 -954 13 -17
27 -31 32 -31 5 0 9 306 9 783 0 948 -4 905 120 1043 66 73 68 96 9 108 -60
12 -166 7 -179 -9z"/>
<path d="M5242 9018 c-57 -92 -59 -184 -23 -868 35 -671 37 -695 57 -810 15
-82 51 -167 83 -193 9 -7 12 -8 8 -1 -13 23 -27 208 -52 684 -13 267 -27 537
-30 600 -7 137 7 278 36 357 18 47 38 74 105 140 46 44 84 86 84 91 0 19 -63
32 -156 32 l-92 0 -20 -32z"/>
<path d="M17914 9018 c29 -173 32 -255 10 -279 -14 -15 -13 -19 13 -39 l28
-22 12 79 c22 147 12 224 -34 275 -24 27 -35 22 -29 -14z"/>
<path d="M11780 9011 c0 -6 4 -13 10 -16 6 -3 7 1 4 9 -7 18 -14 21 -14 7z"/>
<path d="M6842 8995 c-91 -17 -196 -48 -291 -87 -70 -29 -76 -34 -121 -104
-93 -143 -125 -289 -117 -528 6 -176 30 -302 84 -451 27 -71 73 -168 59 -122
-3 10 -16 64 -28 120 -19 86 -22 132 -22 297 1 169 4 206 23 275 68 251 228
433 501 570 47 24 52 29 35 36 -26 10 -37 10 -123 -6z"/>
<path d="M9510 8990 c-25 -25 -70 -121 -70 -150 0 -19 1 -19 33 -1 45 27 133
51 181 51 64 0 110 -17 175 -65 34 -25 65 -45 69 -45 4 0 23 -16 42 -35 19
-19 40 -35 45 -35 6 0 29 -17 52 -38 23 -20 52 -44 64 -52 12 -8 31 -23 41
-32 10 -10 22 -18 26 -18 4 0 23 -16 42 -35 19 -19 40 -35 47 -35 7 0 17 -9
23 -20 6 -11 16 -20 22 -20 6 0 18 -7 27 -15 52 -47 62 -55 69 -55 4 0 15 -8
24 -17 35 -36 55 -53 63 -53 5 0 15 -7 24 -15 52 -47 62 -55 69 -55 4 0 23
-16 42 -35 19 -19 39 -35 44 -35 10 0 71 -50 117 -95 9 -8 20 -15 25 -15 6 0
25 -16 44 -35 19 -19 39 -35 44 -35 5 0 16 -7 25 -15 31 -28 69 -60 92 -75 12
-8 31 -23 41 -32 10 -10 22 -18 26 -18 4 0 23 -16 42 -35 19 -19 40 -35 47
-35 7 0 17 -9 23 -20 6 -11 16 -20 22 -20 6 0 18 -7 27 -15 52 -47 62 -55 69
-55 4 0 15 -8 24 -17 36 -37 55 -53 64 -53 5 0 17 -8 26 -17 9 -10 29 -27 44
-38 14 -11 43 -35 64 -52 21 -18 41 -33 46 -33 8 0 72 -53 115 -95 9 -8 20
-15 25 -15 6 0 25 -16 44 -35 61 -60 74 -45 38 42 -21 51 -26 55 -102 92 -95
46 -148 86 -771 577 -768 604 -1199 940 -1220 951 -11 6 -54 14 -96 18 -71 7
-79 5 -99 -15z"/>
<path d="M21567 9000 c-212 -19 -384 -68 -497 -141 l-60 -39 0 -50 c0 -56 18
-100 58 -142 33 -36 39 -35 47 5 28 126 149 234 330 294 72 24 95 27 225 27
120 0 160 -3 234 -23 106 -27 232 -79 313 -127 l58 -35 -45 46 c-49 51 -182
143 -245 170 -48 21 -263 28 -418 15z"/>
<path d="M24480 9003 c-74 -11 -216 -50 -295 -80 -66 -25 -99 -44 -123 -71
-42 -46 -107 -178 -127 -257 -48 -188 -36 -449 31 -685 18 -64 75 -203 80
-197 2 2 -5 44 -17 93 -30 130 -37 407 -14 529 51 275 208 469 504 625 51 28
60 35 45 41 -20 8 -44 9 -84 2z"/>
<path d="M22558 8925 c-7 -7 16 -184 36 -283 20 -96 16 -126 -20 -145 l-26
-14 32 -31 c17 -18 40 -32 50 -32 37 0 41 30 25 192 -24 244 -31 281 -56 301
-22 18 -32 21 -41 12z"/>
<path d="M6214 8818 c-165 -173 -250 -381 -261 -640 -7 -143 5 -240 43 -351
26 -77 89 -191 123 -221 21 -19 21 -19 20 5 0 13 -5 47 -10 74 -6 28 -12 61
-13 75 -2 14 -6 43 -10 65 -7 41 -15 177 -18 295 -3 101 12 290 27 345 7 28
21 79 30 114 19 72 68 184 109 249 15 24 26 46 23 48 -2 2 -31 -24 -63 -58z"/>
<path d="M23799 8802 c-121 -129 -199 -288 -235 -479 -12 -67 -15 -123 -11
-233 5 -160 19 -226 71 -335 32 -68 105 -180 112 -172 2 2 -1 35 -7 73 -5 38
-12 80 -13 94 -2 14 -6 41 -10 60 -3 19 -8 63 -10 98 -2 35 -7 66 -9 69 -3 3
-2 16 3 29 5 13 6 25 1 28 -11 7 -4 318 9 350 5 15 10 41 10 58 0 18 4 45 9
62 40 134 60 184 107 274 29 56 52 102 50 102 -2 0 -37 -35 -77 -78z"/>
<path d="M2226 8808 c-57 -62 -97 -124 -111 -166 l-7 -23 44 22 c65 33 135 49
221 49 l78 0 -18 31 c-21 36 -128 149 -142 149 -5 0 -35 -28 -65 -62z"/>
<path d="M28716 8670 c-5 -44 -16 -86 -33 -117 -36 -68 -122 -171 -195 -233
-114 -96 -186 -187 -98 -124 34 25 84 46 153 66 270 78 379 186 343 341 -21
90 -67 137 -134 137 -29 0 -30 -1 -36 -70z"/>
<path d="M4670 8711 c-34 -9 -15 -19 54 -27 53 -6 56 -5 56 15 0 18 -5 21 -42
20 -24 -1 -54 -4 -68 -8z"/>
<path d="M29088 8685 c2 -14 -1 -62 -8 -107 -34 -217 -183 -359 -470 -449 -58
-18 -107 -34 -109 -35 -2 -2 32 -50 75 -108 l78 -105 16 27 c27 44 50 59 159
106 206 91 302 195 333 366 15 77 -1 189 -38 271 -28 61 -45 77 -36 34z"/>
<path d="M2195 8500 c-9 -15 -65 -936 -65 -1080 0 -148 10 -189 55 -238 l34
-37 1 105 c0 101 33 703 46 842 7 74 37 145 69 162 11 6 22 12 24 13 5 3 -138
231 -149 238 -5 3 -11 1 -15 -5z"/>
<path d="M26250 8468 c0 -2 10 -37 21 -78 30 -110 37 -320 15 -430 -45 -218
-154 -424 -336 -631 -64 -73 -51 -71 69 9 100 67 242 199 307 285 61 82 119
207 137 296 45 221 -26 450 -162 526 -42 24 -51 28 -51 23z"/>
<path d="M8663 8433 c4 -16 14 -62 23 -103 23 -108 21 -294 -5 -404 -50 -210
-150 -394 -319 -583 -35 -40 -59 -73 -54 -73 19 0 189 119 253 178 170 154
256 283 300 448 18 68 20 96 14 199 -4 79 -11 127 -20 142 -8 12 -15 29 -15
37 0 32 -81 141 -124 167 -45 27 -60 25 -53 -8z"/>
<path d="M18330 8436 c0 -67 154 -162 377 -235 106 -34 222 -79 338 -131 22
-10 76 -33 120 -53 107 -47 213 -96 375 -174 74 -36 173 -83 220 -105 47 -21
92 -43 100 -48 8 -5 67 -36 130 -68 115 -59 183 -96 272 -146 l47 -26 71 17
c39 9 69 22 67 27 -2 6 -54 45 -115 87 -304 205 -881 467 -1474 670 -178 60
-366 131 -418 157 -52 26 -98 48 -102 50 -5 2 -8 -8 -8 -22z"/>
<path d="M4451 8410 c-46 -82 -544 -865 -574 -904 -17 -21 -51 -48 -75 -58
-48 -21 -54 -30 -277 -386 -84 -134 -116 -177 -142 -191 l-34 -17 44 -47 c38
-41 48 -47 85 -47 58 0 81 27 250 297 79 125 272 433 429 683 157 250 296 466
309 481 22 22 24 34 23 110 -1 116 -8 132 -38 79z"/>
<path d="M9068 8355 c4 -27 7 -113 6 -190 0 -109 -5 -160 -23 -229 -25 -102
-89 -244 -151 -337 -119 -174 -339 -363 -565 -485 -38 -21 -92 -58 -120 -84
-58 -54 -135 -107 -255 -176 l-85 -49 43 -3 c99 -7 328 61 506 150 511 256
789 680 736 1125 -11 95 -55 252 -85 303 -14 23 -14 22 -7 -25z"/>
<path d="M26668 8350 c4 -25 6 -108 6 -185 -2 -170 -29 -288 -99 -431 -111
-230 -343 -453 -645 -623 -41 -23 -106 -69 -145 -103 -38 -33 -124 -92 -190
-132 l-120 -71 39 -3 c99 -8 321 58 511 153 437 218 710 571 740 957 11 137
-29 348 -85 448 l-20 35 8 -45z"/>
<path d="M20920 8306 c0 -68 164 -170 395 -245 117 -37 236 -84 363 -142 34
-16 64 -29 67 -29 2 0 52 -22 110 -50 58 -27 108 -50 110 -50 14 0 597 -288
735 -363 47 -26 94 -51 106 -56 11 -5 56 -30 100 -56 43 -26 88 -51 99 -56 11
-5 43 -22 70 -39 60 -35 169 -90 179 -90 17 0 -32 69 -93 130 -110 110 -260
214 -491 340 -294 160 -798 374 -1210 514 -173 59 -366 131 -427 161 -108 51
-113 53 -113 31z"/>
<path d="M17613 8250 c-22 -9 -23 -15 -23 -112 1 -57 7 -152 15 -213 12 -96
12 -113 -1 -132 -8 -13 -18 -23 -22 -23 -4 0 -13 -4 -21 -9 -20 -13 18 -64 59
-81 27 -11 34 -11 48 3 18 18 17 12 14 324 -2 186 -5 224 -18 237 -17 18 -20
18 -51 6z"/>
<path d="M18302 8147 c9 -25 126 -109 213 -152 49 -24 160 -70 245 -101 247
-90 603 -251 1009 -453 169 -85 230 -111 248 -106 13 3 23 10 21 16 -5 16
-364 204 -653 343 -369 176 -623 288 -793 347 -81 29 -180 67 -220 85 -41 19
-72 28 -70 21z"/>
<path d="M16663 8050 c-17 -10 -37 -28 -43 -40 -8 -14 -10 -138 -8 -408 3
-361 4 -389 22 -419 11 -17 30 -36 42 -42 l23 -10 3 317 c3 308 4 318 26 360
72 135 289 175 570 106 35 -9 65 -14 68 -12 9 10 -57 98 -83 111 -24 13 -38
13 -98 1 -141 -27 -282 -14 -376 35 -50 26 -105 27 -146 1z"/>
<path d="M20893 8017 c7 -24 123 -108 207 -151 47 -24 161 -72 253 -106 443
-163 1283 -571 1618 -785 39 -26 73 -44 76 -42 7 8 -97 91 -192 155 -140 92
-334 200 -639 353 -450 227 -803 386 -1036 469 -75 26 -171 64 -213 83 -43 20
-77 31 -74 24z"/>
<path d="M27574 7996 c-17 -8 -42 -29 -55 -47 l-24 -34 -3 -332 c-2 -215 1
-346 8 -372 10 -39 53 -101 70 -101 5 0 10 125 13 278 2 187 8 290 16 317 17
52 94 127 147 143 52 15 129 16 157 1 21 -12 21 -12 3 17 -34 54 -70 84 -110
95 -23 6 -58 20 -78 30 -43 22 -100 24 -144 5z"/>
<path d="M5980 7693 c1 -51 17 -117 29 -121 6 -2 11 -15 11 -29 0 -15 10 -33
25 -45 14 -11 25 -25 25 -32 0 -11 56 -67 140 -138 66 -58 237 -152 327 -181
46 -15 47 -15 23 1 -240 165 -403 326 -533 525 -20 31 -39 57 -42 57 -3 0 -5
-17 -5 -37z"/>
<path d="M23577 7704 c-7 -41 3 -95 25 -123 10 -13 18 -34 18 -46 0 -28 137
-171 223 -234 101 -74 327 -185 327 -160 0 5 -4 9 -8 9 -5 0 -56 34 -113 76
-135 99 -297 263 -384 389 -86 126 -81 121 -88 89z"/>
<path d="M11838 7484 c-27 -25 -48 -49 -48 -53 0 -9 88 -163 100 -175 7 -7 10
41 10 132 0 78 -3 142 -7 142 -5 0 -29 -21 -55 -46z"/>
<path d="M18083 7438 c-11 -13 -37 -52 -59 -88 -58 -97 -184 -224 -258 -260
-65 -30 -160 -50 -236 -49 -45 1 -45 1 -12 10 36 11 38 16 18 38 -8 9 -12 22
-8 28 4 7 64 39 132 71 135 64 244 138 255 172 11 34 -1 35 -42 3 -103 -79
-223 -137 -386 -187 -88 -27 -104 -39 -66 -51 27 -9 20 -25 -22 -53 -19 -13
-33 -28 -32 -32 3 -10 -13 -15 -69 -25 -33 -5 -39 -11 -48 -43 -50 -181 -33
-368 51 -539 21 -43 36 -68 33 -55 -13 53 -19 159 -11 194 11 46 67 113 116
137 49 26 138 41 235 41 105 0 205 22 286 62 121 59 252 223 267 335 3 22 -1
66 -8 99 -7 32 -12 66 -10 75 2 18 -32 32 -46 18 -4 -4 -6 21 -5 56 l4 65 -29
0 c-18 0 -38 -9 -50 -22z m67 -158 c-15 -52 -50 -102 -129 -183 -97 -99 -157
-140 -255 -172 -100 -33 -300 -49 -278 -22 28 33 124 89 224 129 56 22 154 73
218 113 63 40 134 83 158 96 24 14 45 34 48 47 4 12 10 22 14 22 5 0 5 -14 0
-30z"/>
<path d="M3485 7425 c-27 -7 -71 -16 -97 -20 -60 -8 -62 -13 -49 -173 8 -111
14 -143 25 -131 11 14 206 327 206 333 0 9 -28 6 -85 -9z"/>
<path d="M23350 7413 c58 -149 181 -299 286 -349 31 -15 37 -25 59 -98 43
-145 58 -249 52 -381 -6 -146 -22 -210 -87 -340 -127 -257 -325 -432 -730
-644 -282 -149 -422 -214 -621 -289 -113 -42 -217 -85 -230 -95 -24 -18 -23
-18 56 -12 384 27 874 194 1190 406 217 146 347 286 435 471 94 197 100 342
30 652 -48 210 -40 252 49 244 25 -3 98 -28 161 -56 208 -92 325 -128 536
-167 119 -22 423 -31 539 -16 133 18 131 23 -22 56 -59 12 -140 32 -178 43
-42 12 -132 24 -226 31 -337 25 -598 90 -835 209 -129 65 -289 178 -384 271
-48 47 -84 76 -80 64z"/>
<path d="M20672 7372 c-20 -3 -23 -8 -17 -30 l7 -27 -24 23 c-14 12 -28 22
-34 22 -5 0 -52 -12 -104 -27 -82 -23 -102 -33 -148 -75 -30 -26 -57 -48 -60
-48 -4 0 -20 9 -36 19 -27 18 -31 18 -63 3 -24 -12 -32 -20 -26 -31 3 -9 7
-43 8 -76 3 -92 1 -90 118 -92 56 -1 126 -8 155 -16 56 -15 60 -13 37 20 -15
21 -14 22 18 28 18 4 88 7 156 8 l123 2 -4 32 c-5 41 6 34 48 -33 19 -30 36
-54 37 -54 1 0 3 12 3 26 3 45 52 82 167 128 l38 15 14 -32 c7 -18 23 -69 34
-112 97 -386 15 -681 -266 -957 -122 -121 -239 -206 -395 -288 l-87 -46 62
-36 c34 -20 81 -45 104 -57 l43 -21 112 76 c214 145 316 241 413 389 87 132
127 238 141 378 5 49 4 67 -5 67 -11 0 -41 58 -41 80 0 5 9 10 21 10 19 0 20
4 14 43 -12 75 -45 209 -75 306 -17 52 -30 107 -30 123 0 34 24 95 48 121 16
18 15 20 -9 41 -45 39 -163 100 -167 88 -2 -7 -7 -10 -11 -7 -7 4 -101 11
-246 19 -27 1 -61 0 -73 -2z"/>
<path d="M18850 7346 c0 -3 35 -25 78 -51 l77 -46 -52 51 c-35 34 -60 50 -77
50 -14 0 -26 -2 -26 -4z"/>
<path d="M28620 7325 c0 -2 14 -34 32 -70 52 -110 132 -175 258 -210 64 -18
120 -25 120 -15 0 4 -36 29 -79 54 -94 54 -221 148 -276 205 -35 37 -55 50
-55 36z"/>
<path d="M21450 7211 c0 -5 21 -22 48 -37 26 -15 58 -34 72 -42 14 -8 2 8 -27
37 -46 46 -93 67 -93 42z"/>
<path d="M6074 7141 c49 -51 190 -146 307 -206 180 -92 419 -162 662 -195 159
-21 555 -4 529 22 -5 5 -67 22 -138 38 -71 15 -142 34 -159 40 -16 7 -106 18
-200 26 -289 24 -453 56 -665 129 -102 36 -244 103 -324 152 l-41 26 29 -32z"/>
<path d="M1970 7080 c-12 -8 -10 -10 8 -10 13 0 20 4 17 10 -7 12 -6 12 -25 0z"/>
<path d="M9375 7080 c-3 -5 3 -10 15 -10 12 0 18 5 15 10 -3 6 -10 10 -15 10
-5 0 -12 -4 -15 -10z"/>
<path d="M19491 7034 c-27 -108 -125 -236 -236 -311 -22 -15 -42 -31 -44 -37
-2 -5 -23 -31 -46 -56 -72 -79 -86 -101 -74 -116 29 -35 177 -2 273 60 28 18
75 58 104 89 124 132 142 278 49 401 -13 18 -15 15 -26 -30z"/>
<path d="M19300 7058 c0 -7 -11 -40 -25 -72 -13 -33 -23 -62 -20 -64 2 -2 14
13 28 35 27 43 41 99 27 108 -6 3 -10 0 -10 -7z"/>
<path d="M29475 6944 c-132 -55 -245 -74 -430 -74 -156 0 -231 13 -349 58
l-78 31 23 -26 c37 -39 140 -110 201 -138 104 -47 201 -66 373 -71 88 -2 199
-9 246 -15 91 -11 155 -4 269 28 44 13 136 17 465 23 226 3 418 10 428 14 27
13 21 32 -25 80 l-43 44 -240 7 c-212 7 -455 3 -640 -9 -33 -2 -50 -2 -37 1
16 3 22 9 18 20 -3 8 -6 16 -6 19 0 10 -62 34 -87 34 -15 -1 -55 -12 -88 -26z
m8 -61 c-7 -2 -19 -2 -25 0 -7 3 -2 5 12 5 14 0 19 -2 13 -5z"/>
<path d="M22087 6913 c-12 -72 -66 -164 -143 -240 -40 -39 -85 -78 -102 -87
-16 -8 -37 -27 -46 -41 -9 -14 -40 -51 -67 -81 -68 -75 -64 -89 27 -89 61 0
80 5 150 39 99 49 193 139 232 223 46 100 37 210 -27 292 l-18 24 -6 -40z"/>
<path d="M21897 6930 c-3 -8 -15 -37 -25 -65 -11 -27 -23 -59 -28 -70 -7 -17
-6 -18 8 -7 23 18 60 109 55 135 -3 17 -5 18 -10 7z"/>
<path d="M19955 6864 c-30 -31 -73 -83 -95 -116 -39 -58 -40 -63 -40 -143 0
-100 26 -207 74 -307 20 -40 34 -62 30 -48 -3 14 -8 76 -11 138 -9 170 20 298
103 465 32 62 33 67 14 67 -11 0 -44 -25 -75 -56z"/>
<path d="M1871 6860 c-34 -28 -61 -57 -61 -65 0 -8 12 -18 28 -22 35 -10 549
-10 585 0 26 7 27 8 13 35 -8 15 -32 41 -53 57 -36 28 -45 30 -153 37 -63 3
-156 7 -207 7 l-92 1 -60 -50z"/>
<path d="M4698 6903 c-40 -4 -52 -10 -87 -48 -23 -25 -41 -51 -41 -59 0 -32
59 -36 499 -36 421 0 511 6 511 31 0 6 -20 31 -43 56 l-44 46 -179 8 c-179 8
-528 9 -616 2z"/>
<path d="M9286 6860 c-31 -29 -56 -59 -56 -66 0 -8 12 -17 28 -21 35 -10 559
-10 595 0 41 11 31 34 -35 85 l-58 43 -209 6 -209 6 -56 -53z"/>
<path d="M13751 6903 c-42 -3 -64 -12 -105 -42 -57 -43 -82 -69 -73 -78 18
-17 136 -22 562 -22 434 0 544 5 563 24 9 9 -72 80 -115 100 -27 13 -97 16
-405 19 -205 2 -397 2 -427 -1z"/>
<path d="M16050 6903 c-49 -5 -78 -26 -112 -81 -16 -26 -18 -36 -9 -45 14 -14
979 -13 992 0 4 5 10 22 13 39 7 29 5 31 -35 43 -24 7 -54 20 -68 29 -22 15
-68 17 -381 18 -195 1 -375 -1 -400 -3z"/>
<path d="M26927 6903 c-43 -4 -51 -8 -88 -55 -67 -86 -82 -83 424 -83 238 0
444 3 460 8 38 11 34 33 -16 82 l-43 42 -175 6 c-175 7 -473 7 -562 0z"/>
<path d="M20908 6771 c11 -238 -88 -453 -312 -676 -61 -60 -97 -101 -81 -91
195 123 358 303 418 464 29 77 32 273 4 312 -9 13 -17 34 -17 47 0 12 -4 24
-8 27 -4 3 -6 -35 -4 -83z"/>
<path d="M23498 6625 c3 -90 -1 -131 -16 -194 -47 -184 -161 -354 -357 -530
-81 -72 -28 -45 91 47 258 200 372 425 327 647 -8 39 -18 74 -24 80 -5 5 -9
19 -9 31 0 13 -3 25 -7 27 -5 3 -6 -46 -5 -108z"/>
<path d="M23793 6080 c-34 -72 -58 -130 -54 -130 17 0 71 22 71 29 0 4 -5 12
-12 19 -9 9 -3 31 26 94 21 46 42 91 47 101 6 12 5 17 -3 17 -7 -1 -41 -59
-75 -130z"/>
<path d="M1706 5929 c-40 -31 -33 -78 14 -101 33 -17 415 -18 7542 -18 5643 0
7513 3 7532 12 14 6 28 19 31 29 8 26 -19 73 -50 87 -20 9 -1734 12 -7534 12
l-7508 0 -27 -21z"/>
<path d="M24073 5931 c-55 -34 -56 -91 -1 -110 44 -16 6712 -15 6757 0 55 19
66 65 26 104 l-24 25 -3363 0 c-3303 0 -3364 0 -3395 -19z"/>
<path d="M20266 5866 l-28 -13 31 -23 c35 -24 40 -23 46 9 2 11 7 26 10 31 8
14 -24 11 -59 -4z"/>
<path d="M17414 5741 c32 -36 155 -126 246 -180 227 -135 602 -242 848 -241
59 1 65 2 49 14 -38 29 -326 125 -437 147 -248 47 -535 155 -695 263 l-30 20
19 -23z"/>
<path d="M19841 5683 c-22 -13 -41 -28 -41 -33 0 -4 27 -21 59 -37 59 -29 59
-29 44 -54 -28 -46 -110 -87 -344 -173 -25 -9 -54 -23 -65 -32 -17 -14 -10
-15 81 -10 55 2 163 17 240 32 252 49 391 35 688 -68 188 -65 353 -102 531
-118 177 -17 173 -5 -24 70 -85 33 -199 66 -310 90 -96 21 -218 52 -270 70
-130 43 -379 166 -471 233 l-77 55 -41 -25z"/>
<path d="M14220 4513 c-22 -32 -25 -50 -28 -135 -4 -92 -2 -103 24 -155 l29
-56 12 39 c16 52 16 249 0 301 l-12 42 -25 -36z"/>
<path d="M13114 4444 c-9 -73 0 -205 16 -234 l13 -24 15 30 c8 16 32 52 54 80
21 28 38 60 38 71 0 11 -18 45 -41 76 -29 42 -46 57 -64 57 -21 0 -24 -6 -31
-56z"/>
<path d="M28920 3907 c0 -40 31 -77 65 -77 30 0 33 23 8 75 -13 28 -22 35 -45
35 -25 0 -28 -3 -28 -33z"/>
</g>
</svg>
